<?xml version="1.0" standalone="no"?><!DOCTYPE svg PUBLIC "-//W3C//DTD SVG 1.1//EN" "http://www.w3.org/Graphics/SVG/1.1/DTD/svg11.dtd"><svg t="1543563426013" class="icon" style="" viewBox="0 0 1024 1024" version="1.1" xmlns="http://www.w3.org/2000/svg" p-id="298543" xmlns:xlink="http://www.w3.org/1999/xlink" width="200" height="200"><defs><style type="text/css"></style></defs><path d="M854.6 202.7H170.7c-17.7 0-32-14.3-32-32s14.3-32 32-32h683.9c17.7 0 32 14.3 32 32s-14.3 32-32 32zM810.6 615c-8.5 0-16.9-3.3-23.2-10l-249-262.7-0.1-0.1c-6.5-7-15.3-11.1-24.9-11.5-9.6-0.4-18.7 3-25.7 9.5-0.7 0.6-1.3 1.3-2 2l-0.3 0.3L236.5 605c-12.2 12.8-32.4 13.4-45.2 1.2-12.8-12.2-13.4-32.4-1.2-45.2l248.8-262.5c1.7-1.8 3.5-3.6 5.3-5.3 19.6-18.1 45-27.5 71.7-26.5 26.6 1 51.2 12.3 69.2 31.8L833.9 561c12.2 12.8 11.6 33.1-1.2 45.2-6.3 5.8-14.2 8.8-22.1 8.8z" fill="#ffffff" p-id="298544"></path><path d="M512 884.4c-17.7 0-32-14.3-32-32V299.6c0-17.7 14.3-32 32-32s32 14.3 32 32v552.8c0 17.7-14.3 32-32 32z" fill="#ffffff" p-id="298545"></path></svg>