<?xml version="1.0" standalone="no"?><!DOCTYPE svg PUBLIC "-//W3C//DTD SVG 1.1//EN" "http://www.w3.org/Graphics/SVG/1.1/DTD/svg11.dtd"><svg t="1543561273469" class="icon" style="" viewBox="0 0 1024 1024" version="1.1" xmlns="http://www.w3.org/2000/svg" p-id="216497" xmlns:xlink="http://www.w3.org/1999/xlink" width="200" height="200"><defs><style type="text/css"></style></defs><path d="M180.2 433.2c-9.1 0-16.5-7.4-16.5-16.5 0-45.4 9.3-90.3 27.5-133.4 17.7-41.8 42.9-79.8 74.8-112.7 32.3-33.4 69.7-59.7 111.1-78.2C420.7 72.8 466.6 63 513.7 63c93.3 0 181.1 34.8 247.2 98 32.2 30.8 57.5 66.7 75.1 106.6 18.3 41.4 27.6 85.5 27.6 130.8 0 9.1-7.4 16.5-16.5 16.5s-16.5-7.4-16.5-16.5c0-166.8-142.2-302.5-317-302.5-168.8 0-317 149.9-317 320.8 0.1 9.1-7.2 16.5-16.4 16.5z" fill="#ffffff" p-id="216498"></path><path d="M777 733.9c-9.1 0-16.5-7.4-16.5-16.5V401.8c0-9.1 7.4-16.5 16.5-16.5 100.1 0 181.5 78.2 181.5 174.3-0.1 96.1-81.5 174.3-181.5 174.3z m16.5-314.8V700c74.1-7.8 132-67.8 132-140.4s-57.9-132.6-132-140.5zM250.4 733.9c-100 0-181.4-78.2-181.4-174.3 0-96.1 81.4-174.3 181.5-174.3 9.1 0 16.5 7.4 16.5 16.5v315.6c-0.1 9.1-7.4 16.5-16.6 16.5z m-16.5-314.8C159.8 427 102 487 102 559.6S159.8 692.2 234 700V419.1z" fill="#ffffff" p-id="216499"></path><path d="M503.2 928.6c-9.1 0-16.5-7.4-16.5-16.5s7.4-16.5 16.5-16.5c141.9 0 257.3-101 257.3-225.2 0-9.1 7.4-16.5 16.5-16.5s16.5 7.4 16.5 16.5c0 69.4-30.5 134.5-85.8 183.3-54.7 48.3-127.4 74.9-204.5 74.9z" fill="#ffffff" p-id="216500"></path><path d="M440 955.5c-47.8 0-86.7-37.5-86.7-83.6s38.9-83.6 86.7-83.6c47.8 0 86.7 37.5 86.7 83.6s-38.9 83.6-86.7 83.6z m0-134.3c-29.6 0-53.7 22.7-53.7 50.6s24.1 50.6 53.7 50.6 53.7-22.7 53.7-50.6-24.1-50.6-53.7-50.6z" fill="#ffffff" p-id="216501"></path></svg>