<?xml version="1.0" standalone="no"?><!DOCTYPE svg PUBLIC "-//W3C//DTD SVG 1.1//EN" "http://www.w3.org/Graphics/SVG/1.1/DTD/svg11.dtd"><svg t="1543561721824" class="icon" style="" viewBox="0 0 1024 1024" version="1.1" xmlns="http://www.w3.org/2000/svg" p-id="236858" xmlns:xlink="http://www.w3.org/1999/xlink" width="200" height="200"><defs><style type="text/css"></style></defs><path d="M576.7 828.6c-69.3 53.7-122.9 7.5-129.2 1.9-11.2-10.6-28.1-10-38.7 0.6-10.6 10.6-10 28.1 0.6 38.7 18.7 18.1 55.5 39.3 100.5 39.3 30.6 0 64.9-10 100.5-37.4 11.9-9.4 14.4-26.8 5-38.7-9.4-11.3-26.9-13.8-38.7-4.4z" fill="#ff7955" p-id="236859"></path><path d="M319 538.5c-22.5 0-41.2 18.7-41.2 41.2v54.9c0 22.5 18.7 41.2 41.2 41.2 22.5 0 41.2-18.7 41.2-41.2v-54.9c0-22.5-18.1-41.2-41.2-41.2zM675.9 538.5c-22.5 0-41.2 18.7-41.2 41.2v54.9c0 22.5 18.7 41.2 41.2 41.2 22.5 0 41.2-18.7 41.2-41.2v-54.9c0-22.5-18.1-41.2-41.2-41.2z" fill="#ff7955" p-id="236860"></path><path d="M950.4 442.4c0-234-205.3-439.3-439.3-439.3S71.9 208.4 71.9 442.4c-29.9 0-54.9 25-54.9 54.9v192.2c0 29.9 25 54.9 54.9 54.9h27.5c29.9 0 54.9-25 54.9-54.9V579.6h1.2c214-11.9 363.8-167.2 437.4-265.2 45.5 39.3 166 134.8 283.9 152.9-5.6 8.7-8.7 18.7-8.7 29.9v192.2c0 13.1 5 25 12.5 34.3C866.9 824.8 779.5 906.5 619.2 967c-4.4-17.5-20.6-30.6-39.9-30.6H441.9c-22.5 0-41.2 18.7-41.2 41.2 0 22.5 18.7 41.2 41.2 41.2h137.3c15 0 28.7-8.7 35.6-20.6 171.6-62.4 269.5-148.5 290.8-256.4 5.6 1.9 11.2 3.1 16.8 3.1h27.5c29.9 0 54.9-25 54.9-54.9V497.3c0.5-30-23.8-54.9-54.4-54.9z" fill="#ff7955" p-id="236861"></path><path d="M634.1 199c-13.1-7.5-29.9-2.5-37.4 10.6-1.9 3.1-166.6 298.9-442.4 315.1v-27.5c0-20.6-11.9-38.7-28.7-48 0.6-2.5 1.2-4.4 1.2-6.9C126.8 237.7 306.5 58 511.2 58c195.3 0 367.5 163.5 382.5 356.3-108.6-12.5-230.9-111.7-268.9-145.4 11.9-18.1 18.7-30.6 20-33.1 7.4-13.1 3-29.9-10.7-36.8z" fill="#ff7955" p-id="236862"></path></svg>