<?xml version="1.0" standalone="no"?><!DOCTYPE svg PUBLIC "-//W3C//DTD SVG 1.1//EN" "http://www.w3.org/Graphics/SVG/1.1/DTD/svg11.dtd"><svg t="1543562237347" class="icon" style="" viewBox="0 0 1024 1024" version="1.1" xmlns="http://www.w3.org/2000/svg" p-id="256206" xmlns:xlink="http://www.w3.org/1999/xlink" width="200" height="200"><defs><style type="text/css"></style></defs><path d="M160.768 921.6l12.8-31.744c15.36-37.888 37.376-94.72 46.592-118.784-7.68-8.192-15.36-17.408-23.04-27.648-56.32-73.216-84.992-165.376-81.408-259.584 4.096-102.4 47.616-198.144 121.856-269.824S409.088 103.424 512 102.4c109.056 0 210.432 43.52 284.672 122.368 75.264 78.848 115.2 182.272 111.616 290.304-6.144 208.384-173.568 377.344-380.928 385.024-6.144 0.512-11.776 0.512-16.896 0.512-26.112 0-51.712-2.56-78.848-7.68-54.272 4.608-235.008 24.576-237.056 24.576l-33.792 4.096zM512 143.36c-92.16 0.512-179.2 35.84-245.76 100.352C199.168 308.224 160.768 394.24 156.672 485.888c-3.072 84.48 22.528 166.912 72.704 232.448l0.512 0.512c9.216 12.288 19.456 23.552 28.16 33.28l8.192 8.704-3.584 11.264c-3.072 10.752-24.576 64.512-38.912 101.376 56.832-6.144 168.96-18.432 207.36-21.504h3.072l3.072 0.512c25.088 5.12 49.152 7.68 73.216 7.68 4.608 0 9.216 0 13.312-0.512h1.536c186.368-6.656 336.384-158.208 342.016-345.088 3.072-96.768-32.256-189.44-100.352-260.608-66.56-71.68-157.184-110.08-254.976-110.592z" fill="#ffffff" p-id="256207"></path><path d="M308.224 504.832c0 23.552 18.944 42.496 42.496 42.496 23.552 0 42.496-18.944 42.496-42.496 0-23.552-18.944-42.496-42.496-42.496s-42.496 18.944-42.496 42.496zM474.112 504.832c0 23.552 18.944 42.496 42.496 42.496 23.552 0 42.496-18.944 42.496-42.496 0-23.552-18.944-42.496-42.496-42.496s-42.496 18.944-42.496 42.496zM645.12 504.832c0 23.552 18.944 42.496 42.496 42.496 23.552 0 42.496-18.944 42.496-42.496 0-23.552-18.944-42.496-42.496-42.496S645.12 481.28 645.12 504.832z" fill="#ffffff" p-id="256208"></path></svg>